<svg xmlns="http://www.w3.org/2000/svg" viewBox="0 0 200 200" width="200" height="200">
  <defs>
    <radialGradient id="bg_avatar_8" cx="50%" cy="40%" r="60%">
      <stop offset="0%" stop-color="#ff5500" />
      <stop offset="100%" stop-color="#200800" />
    </radialGradient>
    <linearGradient id="goldChain" x1="0%" y1="0%" x2="100%" y2="100%">
      <stop offset="0%" stop-color="#FFF" />
      <stop offset="30%" stop-color="#FFD700" />
      <stop offset="70%" stop-color="#FFA500" />
      <stop offset="100%" stop-color="#FF8C00" />
    </linearGradient>
    <linearGradient id="shemaghPattern" x1="0%" y1="0%" x2="100%" y2="0%">
      <stop offset="0%" stop-color="#d90429" />
      <stop offset="50%" stop-color="#ffffff" />
      <stop offset="100%" stop-color="#d90429" />
    </linearGradient>
    <filter id="glow_avatar_8">
      <feGaussianBlur stdDeviation="4" result="coloredBlur"/>
      <feMerge>
        <feMergeNode in="coloredBlur"/>
        <feMergeNode in="SourceGraphic"/>
      </feMerge>
    </filter>
  </defs>

  <!-- Background Circle with Neon Border -->
  <circle cx="100" cy="100" r="95" fill="url(#bg_avatar_8)" stroke="#ffaa00" stroke-width="4" filter="url(#glow_avatar_8)" />

  <!-- Fire / Spark Particles -->
  <circle cx="45" cy="40" r="2.5" fill="#FFF" opacity="0.8"/>
  <circle cx="155" cy="35" r="3" fill="#FFA500" opacity="0.9"/>
  <circle cx="170" cy="80" r="2" fill="#FF4500" opacity="0.7"/>
  <circle cx="30" cy="120" r="3.5" fill="#FFD700" opacity="0.85"/>

  <!-- Character Torso / Outfit -->
  <path d="M 40 200 C 40 145, 160 145, 160 200 Z" fill="#141416" stroke="#2a2a2e" stroke-width="2" />
  <path d="M 75 155 L 100 185 L 125 155 Z" fill="#ffe0bd" />

  <!-- Neck -->
  <rect x="86" y="125" width="28" height="35" fill="#ffe0bd" />
  <path d="M 86 135 L 100 150 L 114 135 Z" fill="#000" opacity="0.15" />

  <!-- Head / Face Base -->
  <path d="M 65 80 C 65 130, 100 145, 100 145 C 100 145, 135 130, 135 80 C 135 50, 65 50, 65 80 Z" fill="#ffe0bd" stroke="#000" stroke-width="1.5" />

  <!-- Ears -->
  <circle cx="63" cy="88" r="8" fill="#ffe0bd" />
  <circle cx="137" cy="88" r="8" fill="#ffe0bd" />
  

  
    <!-- Anime Hair Base -->
    <path d="M 55 75 C 50 35, 150 35, 145 75 C 155 40, 115 15, 95 18 C 70 20, 45 45, 55 75 Z" fill="#ff6f61" />
    <!-- Dynamic Spiky Bangs -->
    <path d="M 58 70 L 72 90 L 80 68 L 95 96 L 105 68 L 120 92 L 132 68 L 142 80 L 135 55 L 65 55 Z" fill="#ff6f61" />
  

  <!-- Eyes & Eyebrows -->
  
    <!-- Fierce Anime Eyes -->
    <path d="M 72 78 Q 85 72 94 80 Q 85 86 72 78 Z" fill="#FFF" stroke="#000" stroke-width="2" />
    <circle cx="84" cy="80" r="4.5" fill="#ff6b00" />
    <circle cx="85" cy="79" r="1.5" fill="#FFF" />

    <path d="M 106 80 Q 115 72 128 78 Q 115 86 106 80 Z" fill="#FFF" stroke="#000" stroke-width="2" />
    <circle cx="116" cy="80" r="4.5" fill="#ff6b00" />
    <circle cx="117" cy="79" r="1.5" fill="#FFF" />

    <!-- Sharp Eyebrows -->
    <path d="M 70 72 L 95 76" stroke="#000" stroke-width="3.5" stroke-linecap="round" />
    <path d="M 130 72 L 105 76" stroke="#000" stroke-width="3.5" stroke-linecap="round" />
  

  <!-- Nose -->
  <path d="M 98 94 L 102 99 L 97 101" stroke="#000" stroke-width="1.8" stroke-linecap="round" stroke-linejoin="round" fill="none" opacity="0.8" />

  <!-- Mouth -->
  <path d="M 90 115 Q 100 120 112 114" stroke="#000" stroke-width="2.5" stroke-linecap="round" fill="none" />

  

  

  

  <!-- Outer Ring Badge Style -->
  <circle cx="100" cy="100" r="95" fill="none" stroke="rgba(255,255,255,0.2)" stroke-width="1.5" />
</svg>